# MagicaVoxel @ Ephtracy

# group
o 

# material
mtllib steam_revolver-0.mtl
usemtl palette

# normals
vn -1 0 0
vn 1 0 0
vn 0 0 1
vn 0 0 -1
vn 0 -1 0
vn 0 1 0

# texcoords
vt 0.00195312 0.5
vt 0.00585938 0.5
vt 0.0136719 0.5
vt 0.0175781 0.5
vt 0.0214844 0.5
vt 0.0253906 0.5
vt 0.0722656 0.5
vt 0.0761719 0.5

# verts
v -0.6 1.5 -0.7
v -0.6 1.5 -0.8
v -0.6 1.5 -0.9
v -0.6 1.5 -1
v -0.6 1.6 -0.6
v -0.6 1.6 -0.7
v -0.6 1.6 -0.8
v -0.6 1.6 -0.9
v -0.6 1.6 -1
v -0.6 1.6 -1.1
v -0.6 1.7 -0.6
v -0.6 1.7 -0.7
v -0.6 1.7 -0.8
v -0.6 1.7 -0.9
v -0.6 1.7 -1
v -0.6 1.7 -1.1
v -0.6 1.8 -0.6
v -0.6 1.8 -0.7
v -0.6 1.8 -0.8
v -0.6 1.8 -0.9
v -0.6 1.8 -1
v -0.6 1.8 -1.1
v -0.6 1.9 -0.6
v -0.6 1.9 -0.7
v -0.6 1.9 -0.8
v -0.6 1.9 -0.9
v -0.6 1.9 -1
v -0.6 1.9 -1.1
v -0.6 2 -0.7
v -0.6 2 -0.8
v -0.6 2 -0.9
v -0.6 2 -1
v -0.5 1.5 -0.8
v -0.5 1.5 -0.9
v -0.5 1.6 -0.8
v -0.5 1.6 -0.9
v -0.5 1.7 -0.6
v -0.5 1.7 -0.7
v -0.5 1.7 -1
v -0.5 1.7 -1.1
v -0.5 1.8 -0.6
v -0.5 1.8 -0.7
v -0.5 1.8 -1
v -0.5 1.8 -1.1
v -0.5 1.9 -0.8
v -0.5 1.9 -0.9
v -0.5 2 -0.8
v -0.5 2 -0.9
v -0.4 1.5 -0.7
v -0.4 1.5 -0.8
v -0.4 1.5 -0.9
v -0.4 1.5 -1
v -0.4 1.6 -0.6
v -0.4 1.6 -0.7
v -0.4 1.6 -0.8
v -0.4 1.6 -0.9
v -0.4 1.6 -1
v -0.4 1.6 -1.1
v -0.4 1.7 -0.6
v -0.4 1.7 -0.7
v -0.4 1.7 -1
v -0.4 1.7 -1.1
v -0.4 1.8 -0.6
v -0.4 1.8 -0.7
v -0.4 1.8 -1
v -0.4 1.8 -1.1
v -0.4 1.9 -0.6
v -0.4 1.9 -0.7
v -0.4 1.9 -0.8
v -0.4 1.9 -0.9
v -0.4 1.9 -1
v -0.4 1.9 -1.1
v -0.4 2 -0.7
v -0.4 2 -0.8
v -0.4 2 -0.9
v -0.4 2 -1
v -0.5 1.5 -0.7
v -0.5 1.5 -0.8
v -0.5 1.5 -0.9
v -0.5 1.5 -1
v -0.5 1.6 -0.6
v -0.5 1.6 -0.7
v -0.5 1.6 -0.8
v -0.5 1.6 -0.9
v -0.5 1.6 -1
v -0.5 1.6 -1.1
v -0.5 1.7 -0.6
v -0.5 1.7 -0.7
v -0.5 1.7 -1
v -0.5 1.7 -1.1
v -0.5 1.8 -0.6
v -0.5 1.8 -0.7
v -0.5 1.8 -1
v -0.5 1.8 -1.1
v -0.5 1.9 -0.6
v -0.5 1.9 -0.7
v -0.5 1.9 -0.8
v -0.5 1.9 -0.9
v -0.5 1.9 -1
v -0.5 1.9 -1.1
v -0.5 2 -0.7
v -0.5 2 -0.8
v -0.5 2 -0.9
v -0.5 2 -1
v -0.1 1.5 -0.8
v -0.1 1.5 -0.9
v -0.1 1.6 -0.8
v -0.1 1.6 -0.9
v -0.1 1.7 -0.6
v -0.1 1.7 -0.7
v -0.1 1.7 -1
v -0.1 1.7 -1.1
v -0.1 1.8 -0.6
v -0.1 1.8 -0.7
v -0.1 1.8 -1
v -0.1 1.8 -1.1
v -0.1 1.9 -0.8
v -0.1 1.9 -0.9
v -0.1 2 -0.8
v -0.1 2 -0.9
v 0.3 1.5 -0.7
v 0.3 1.5 -0.8
v 0.3 1.5 -0.9
v 0.3 1.5 -1
v 0.3 1.6 -0.6
v 0.3 1.6 -0.7
v 0.3 1.6 -0.8
v 0.3 1.6 -0.9
v 0.3 1.6 -1
v 0.3 1.6 -1.1
v 0.3 1.7 -0.6
v 0.3 1.7 -0.7
v 0.3 1.7 -0.8
v 0.3 1.7 -0.9
v 0.3 1.7 -1
v 0.3 1.7 -1.1
v 0.3 1.8 -0.6
v 0.3 1.8 -0.7
v 0.3 1.8 -0.8
v 0.3 1.8 -0.9
v 0.3 1.8 -1
v 0.3 1.8 -1.1
v 0.3 1.9 -0.6
v 0.3 1.9 -0.7
v 0.3 1.9 -0.8
v 0.3 1.9 -0.9
v 0.3 1.9 -1
v 0.3 1.9 -1.1
v 0.3 2 -0.7
v 0.3 2 -0.8
v 0.3 2 -0.9
v 0.3 2 -1
v -0.6 1.6 -0.6
v -0.6 1.7 -0.6
v -0.6 1.8 -0.6
v -0.6 1.9 -0.6
v -0.5 1.6 -0.6
v -0.5 1.7 -0.6
v -0.5 1.8 -0.6
v -0.5 1.9 -0.6
v -0.4 1.6 -0.6
v -0.4 1.7 -0.6
v -0.4 1.8 -0.6
v -0.4 1.9 -0.6
v -0.1 1.7 -0.6
v -0.1 1.8 -0.6
v -5.96046e-08 1.6 -0.6
v -5.96046e-08 1.7 -0.6
v -5.96046e-08 1.8 -0.6
v -5.96046e-08 1.9 -0.6
v 0.3 1.6 -0.6
v 0.3 1.7 -0.6
v 0.3 1.8 -0.6
v 0.3 1.9 -0.6
v -0.6 1.5 -0.7
v -0.6 1.6 -0.7
v -0.6 1.7 -0.7
v -0.6 1.8 -0.7
v -0.6 1.9 -0.7
v -0.6 2 -0.7
v -0.5 1.5 -0.7
v -0.5 1.6 -0.7
v -0.5 1.7 -0.7
v -0.5 1.8 -0.7
v -0.5 1.9 -0.7
v -0.5 2 -0.7
v -0.4 1.5 -0.7
v -0.4 1.6 -0.7
v -0.4 1.7 -0.7
v -0.4 1.8 -0.7
v -0.4 1.9 -0.7
v -0.4 2 -0.7
v -0.1 1.7 -0.7
v -0.1 1.8 -0.7
v -5.96046e-08 1.5 -0.7
v -5.96046e-08 1.6 -0.7
v -5.96046e-08 1.7 -0.7
v -5.96046e-08 1.8 -0.7
v -5.96046e-08 1.9 -0.7
v -5.96046e-08 2 -0.7
v 0.3 1.5 -0.7
v 0.3 1.6 -0.7
v 0.3 1.7 -0.7
v 0.3 1.8 -0.7
v 0.3 1.9 -0.7
v 0.3 2 -0.7
v -0.5 1.5 -0.8
v -0.5 1.6 -0.8
v -0.5 1.9 -0.8
v -0.5 2 -0.8
v -0.4 1.5 -0.8
v -0.4 1.6 -0.8
v -0.4 1.9 -0.8
v -0.4 2 -0.8
v -0.6 1.5 -0.9
v -0.6 1.6 -0.9
v -0.6 1.9 -0.9
v -0.6 2 -0.9
v -0.5 1.5 -0.9
v -0.5 1.6 -0.9
v -0.5 1.9 -0.9
v -0.5 2 -0.9
v -0.1 1.5 -0.9
v -0.1 1.6 -0.9
v -0.1 1.9 -0.9
v -0.1 2 -0.9
v -5.96046e-08 1.5 -0.9
v -5.96046e-08 1.6 -0.9
v -5.96046e-08 1.9 -0.9
v -5.96046e-08 2 -0.9
v 0.3 1.5 -0.9
v 0.3 1.6 -0.9
v 0.3 1.9 -0.9
v 0.3 2 -0.9
v -0.6 1.5 -0.8
v -0.6 1.6 -0.8
v -0.6 1.9 -0.8
v -0.6 2 -0.8
v -0.5 1.5 -0.8
v -0.5 1.6 -0.8
v -0.5 1.9 -0.8
v -0.5 2 -0.8
v -0.1 1.5 -0.8
v -0.1 1.6 -0.8
v -0.1 1.9 -0.8
v -0.1 2 -0.8
v -5.96046e-08 1.5 -0.8
v -5.96046e-08 1.6 -0.8
v -5.96046e-08 1.9 -0.8
v -5.96046e-08 2 -0.8
v 0.3 1.5 -0.8
v 0.3 1.6 -0.8
v 0.3 1.9 -0.8
v 0.3 2 -0.8
v -0.5 1.5 -0.9
v -0.5 1.6 -0.9
v -0.5 1.9 -0.9
v -0.5 2 -0.9
v -0.4 1.5 -0.9
v -0.4 1.6 -0.9
v -0.4 1.9 -0.9
v -0.4 2 -0.9
v -0.6 1.5 -1
v -0.6 1.6 -1
v -0.6 1.7 -1
v -0.6 1.8 -1
v -0.6 1.9 -1
v -0.6 2 -1
v -0.5 1.5 -1
v -0.5 1.6 -1
v -0.5 1.7 -1
v -0.5 1.8 -1
v -0.5 1.9 -1
v -0.5 2 -1
v -0.4 1.5 -1
v -0.4 1.6 -1
v -0.4 1.7 -1
v -0.4 1.8 -1
v -0.4 1.9 -1
v -0.4 2 -1
v -0.1 1.7 -1
v -0.1 1.8 -1
v -5.96046e-08 1.5 -1
v -5.96046e-08 1.6 -1
v -5.96046e-08 1.7 -1
v -5.96046e-08 1.8 -1
v -5.96046e-08 1.9 -1
v -5.96046e-08 2 -1
v 0.3 1.5 -1
v 0.3 1.6 -1
v 0.3 1.7 -1
v 0.3 1.8 -1
v 0.3 1.9 -1
v 0.3 2 -1
v -0.6 1.6 -1.1
v -0.6 1.7 -1.1
v -0.6 1.8 -1.1
v -0.6 1.9 -1.1
v -0.5 1.6 -1.1
v -0.5 1.7 -1.1
v -0.5 1.8 -1.1
v -0.5 1.9 -1.1
v -0.4 1.6 -1.1
v -0.4 1.7 -1.1
v -0.4 1.8 -1.1
v -0.4 1.9 -1.1
v -0.1 1.7 -1.1
v -0.1 1.8 -1.1
v -5.96046e-08 1.6 -1.1
v -5.96046e-08 1.7 -1.1
v -5.96046e-08 1.8 -1.1
v -5.96046e-08 1.9 -1.1
v 0.3 1.6 -1.1
v 0.3 1.7 -1.1
v 0.3 1.8 -1.1
v 0.3 1.9 -1.1
v -0.6 1.5 -0.7
v -0.5 1.5 -0.7
v -0.4 1.5 -0.7
v -5.96046e-08 1.5 -0.7
v 0.3 1.5 -0.7
v -0.6 1.5 -0.8
v -0.5 1.5 -0.8
v -0.4 1.5 -0.8
v -0.1 1.5 -0.8
v -5.96046e-08 1.5 -0.8
v 0.3 1.5 -0.8
v -0.6 1.5 -0.9
v -0.5 1.5 -0.9
v -0.4 1.5 -0.9
v -0.1 1.5 -0.9
v -5.96046e-08 1.5 -0.9
v 0.3 1.5 -0.9
v -0.6 1.5 -1
v -0.5 1.5 -1
v -0.4 1.5 -1
v -5.96046e-08 1.5 -1
v 0.3 1.5 -1
v -0.6 1.6 -0.6
v -0.5 1.6 -0.6
v -0.4 1.6 -0.6
v -5.96046e-08 1.6 -0.6
v 0.3 1.6 -0.6
v -0.6 1.6 -0.7
v -0.5 1.6 -0.7
v -0.4 1.6 -0.7
v -5.96046e-08 1.6 -0.7
v 0.3 1.6 -0.7
v -0.6 1.6 -0.8
v -0.5 1.6 -0.8
v -0.4 1.6 -0.8
v -0.1 1.6 -0.8
v -5.96046e-08 1.6 -0.8
v 0.3 1.6 -0.8
v -0.6 1.6 -0.9
v -0.5 1.6 -0.9
v -0.4 1.6 -0.9
v -0.1 1.6 -0.9
v -5.96046e-08 1.6 -0.9
v 0.3 1.6 -0.9
v -0.6 1.6 -1
v -0.5 1.6 -1
v -0.4 1.6 -1
v -5.96046e-08 1.6 -1
v 0.3 1.6 -1
v -0.6 1.6 -1.1
v -0.5 1.6 -1.1
v -0.4 1.6 -1.1
v -5.96046e-08 1.6 -1.1
v 0.3 1.6 -1.1
v -0.5 1.7 -0.6
v -0.4 1.7 -0.6
v -0.5 1.7 -0.7
v -0.4 1.7 -0.7
v -0.5 1.7 -1
v -0.4 1.7 -1
v -0.5 1.7 -1.1
v -0.4 1.7 -1.1
v -0.6 1.8 -0.6
v -0.5 1.8 -0.6
v -0.1 1.8 -0.6
v -5.96046e-08 1.8 -0.6
v 0.3 1.8 -0.6
v -0.6 1.8 -0.7
v -0.5 1.8 -0.7
v -0.1 1.8 -0.7
v -5.96046e-08 1.8 -0.7
v 0.3 1.8 -0.7
v -0.6 1.8 -1
v -0.5 1.8 -1
v -0.1 1.8 -1
v -5.96046e-08 1.8 -1
v 0.3 1.8 -1
v -0.6 1.8 -1.1
v -0.5 1.8 -1.1
v -0.1 1.8 -1.1
v -5.96046e-08 1.8 -1.1
v 0.3 1.8 -1.1
v -0.6 1.7 -0.6
v -0.5 1.7 -0.6
v -0.1 1.7 -0.6
v -5.96046e-08 1.7 -0.6
v 0.3 1.7 -0.6
v -0.6 1.7 -0.7
v -0.5 1.7 -0.7
v -0.1 1.7 -0.7
v -5.96046e-08 1.7 -0.7
v 0.3 1.7 -0.7
v -0.6 1.7 -1
v -0.5 1.7 -1
v -0.1 1.7 -1
v -5.96046e-08 1.7 -1
v 0.3 1.7 -1
v -0.6 1.7 -1.1
v -0.5 1.7 -1.1
v -0.1 1.7 -1.1
v -5.96046e-08 1.7 -1.1
v 0.3 1.7 -1.1
v -0.5 1.8 -0.6
v -0.4 1.8 -0.6
v -0.5 1.8 -0.7
v -0.4 1.8 -0.7
v -0.5 1.8 -1
v -0.4 1.8 -1
v -0.5 1.8 -1.1
v -0.4 1.8 -1.1
v -0.6 1.9 -0.6
v -0.5 1.9 -0.6
v -0.4 1.9 -0.6
v -5.96046e-08 1.9 -0.6
v 0.3 1.9 -0.6
v -0.6 1.9 -0.7
v -0.5 1.9 -0.7
v -0.4 1.9 -0.7
v -5.96046e-08 1.9 -0.7
v 0.3 1.9 -0.7
v -0.6 1.9 -0.8
v -0.5 1.9 -0.8
v -0.4 1.9 -0.8
v -0.1 1.9 -0.8
v -5.96046e-08 1.9 -0.8
v 0.3 1.9 -0.8
v -0.6 1.9 -0.9
v -0.5 1.9 -0.9
v -0.4 1.9 -0.9
v -0.1 1.9 -0.9
v -5.96046e-08 1.9 -0.9
v 0.3 1.9 -0.9
v -0.6 1.9 -1
v -0.5 1.9 -1
v -0.4 1.9 -1
v -5.96046e-08 1.9 -1
v 0.3 1.9 -1
v -0.6 1.9 -1.1
v -0.5 1.9 -1.1
v -0.4 1.9 -1.1
v -5.96046e-08 1.9 -1.1
v 0.3 1.9 -1.1
v -0.6 2 -0.7
v -0.5 2 -0.7
v -0.4 2 -0.7
v -5.96046e-08 2 -0.7
v 0.3 2 -0.7
v -0.6 2 -0.8
v -0.5 2 -0.8
v -0.4 2 -0.8
v -0.1 2 -0.8
v -5.96046e-08 2 -0.8
v 0.3 2 -0.8
v -0.6 2 -0.9
v -0.5 2 -0.9
v -0.4 2 -0.9
v -0.1 2 -0.9
v -5.96046e-08 2 -0.9
v 0.3 2 -0.9
v -0.6 2 -1
v -0.5 2 -1
v -0.4 2 -1
v -5.96046e-08 2 -1
v 0.3 2 -1

# faces
f 6/8/1 2/8/1 1/8/1
f 7/8/1 2/8/1 6/8/1
f 8/8/1 4/8/1 3/8/1
f 9/8/1 4/8/1 8/8/1
f 11/8/1 7/8/1 6/8/1
f 11/8/1 6/8/1 5/8/1
f 12/8/1 7/8/1 11/8/1
f 13/7/1 8/7/1 7/7/1
f 13/8/1 7/8/1 12/8/1
f 14/8/1 10/8/1 9/8/1
f 14/7/1 8/7/1 13/7/1
f 14/8/1 9/8/1 8/8/1
f 15/8/1 10/8/1 14/8/1
f 16/8/1 10/8/1 15/8/1
f 18/7/1 13/7/1 12/7/1
f 19/1/1 14/1/1 13/1/1
f 19/7/1 13/7/1 18/7/1
f 20/7/1 15/7/1 14/7/1
f 20/1/1 14/1/1 19/1/1
f 21/7/1 15/7/1 20/7/1
f 23/8/1 19/8/1 18/8/1
f 23/8/1 18/8/1 17/8/1
f 24/8/1 19/8/1 23/8/1
f 25/7/1 20/7/1 19/7/1
f 25/8/1 19/8/1 24/8/1
f 26/8/1 22/8/1 21/8/1
f 26/7/1 20/7/1 25/7/1
f 26/8/1 21/8/1 20/8/1
f 27/8/1 22/8/1 26/8/1
f 28/8/1 22/8/1 27/8/1
f 29/8/1 25/8/1 24/8/1
f 30/8/1 25/8/1 29/8/1
f 31/8/1 27/8/1 26/8/1
f 32/8/1 27/8/1 31/8/1
f 35/5/1 34/5/1 33/5/1
f 36/5/1 34/5/1 35/5/1
f 41/5/1 38/5/1 37/5/1
f 42/5/1 38/5/1 41/5/1
f 43/5/1 40/5/1 39/5/1
f 44/5/1 40/5/1 43/5/1
f 47/5/1 46/5/1 45/5/1
f 48/5/1 46/5/1 47/5/1
f 54/4/1 50/4/1 49/4/1
f 55/4/1 50/4/1 54/4/1
f 56/4/1 52/4/1 51/4/1
f 57/4/1 52/4/1 56/4/1
f 59/4/1 54/4/1 53/4/1
f 60/4/1 54/4/1 59/4/1
f 61/4/1 58/4/1 57/4/1
f 62/4/1 58/4/1 61/4/1
f 67/4/1 64/4/1 63/4/1
f 68/4/1 64/4/1 67/4/1
f 71/4/1 66/4/1 65/4/1
f 72/4/1 66/4/1 71/4/1
f 73/4/1 69/4/1 68/4/1
f 74/4/1 69/4/1 73/4/1
f 75/4/1 71/4/1 70/4/1
f 76/4/1 71/4/1 75/4/1
f 77/8/2 78/8/2 82/8/2
f 82/8/2 78/8/2 83/8/2
f 79/8/2 80/8/2 84/8/2
f 84/8/2 80/8/2 85/8/2
f 81/8/2 82/8/2 87/8/2
f 87/8/2 82/8/2 88/8/2
f 85/8/2 86/8/2 89/8/2
f 89/8/2 86/8/2 90/8/2
f 91/8/2 92/8/2 95/8/2
f 95/8/2 92/8/2 96/8/2
f 93/8/2 94/8/2 99/8/2
f 99/8/2 94/8/2 100/8/2
f 96/8/2 97/8/2 101/8/2
f 101/8/2 97/8/2 102/8/2
f 98/8/2 99/8/2 103/8/2
f 103/8/2 99/8/2 104/8/2
f 105/5/2 106/5/2 107/5/2
f 107/5/2 106/5/2 108/5/2
f 109/5/2 110/5/2 113/5/2
f 113/5/2 110/5/2 114/5/2
f 111/5/2 112/5/2 115/5/2
f 115/5/2 112/5/2 116/5/2
f 117/5/2 118/5/2 119/5/2
f 119/5/2 118/5/2 120/5/2
f 121/3/2 122/3/2 126/3/2
f 126/3/2 122/3/2 127/3/2
f 123/3/2 124/3/2 128/3/2
f 128/3/2 124/3/2 129/3/2
f 125/3/2 126/3/2 131/3/2
f 126/4/2 127/4/2 132/4/2
f 131/3/2 126/3/2 132/3/2
f 127/6/2 128/6/2 133/6/2
f 132/4/2 127/4/2 133/4/2
f 128/4/2 129/4/2 134/4/2
f 133/6/2 128/6/2 134/6/2
f 129/3/2 130/3/2 135/3/2
f 134/4/2 129/4/2 135/4/2
f 135/3/2 130/3/2 136/3/2
f 132/6/2 133/6/2 138/6/2
f 133/5/2 134/5/2 139/5/2
f 138/6/2 133/6/2 139/6/2
f 134/6/2 135/6/2 140/6/2
f 139/5/2 134/5/2 140/5/2
f 140/6/2 135/6/2 141/6/2
f 137/3/2 138/3/2 143/3/2
f 138/4/2 139/4/2 144/4/2
f 143/3/2 138/3/2 144/3/2
f 139/6/2 140/6/2 145/6/2
f 144/4/2 139/4/2 145/4/2
f 140/2/2 141/2/2 146/2/2
f 145/6/2 140/6/2 146/6/2
f 141/3/2 142/3/2 147/3/2
f 146/2/2 141/2/2 147/2/2
f 147/3/2 142/3/2 148/3/2
f 144/3/2 145/3/2 149/3/2
f 149/3/2 145/3/2 150/3/2
f 146/3/2 147/3/2 151/3/2
f 151/3/2 147/3/2 152/3/2
f 157/8/3 154/8/3 153/8/3
f 158/8/3 154/8/3 157/8/3
f 159/8/3 156/8/3 155/8/3
f 160/8/3 156/8/3 159/8/3
f 162/5/3 159/5/3 158/5/3
f 163/5/3 159/5/3 162/5/3
f 165/4/3 162/4/3 161/4/3
f 165/5/3 163/5/3 162/5/3
f 166/4/3 164/4/3 163/4/3
f 166/5/3 163/5/3 165/5/3
f 167/4/3 165/4/3 161/4/3
f 168/4/3 165/4/3 167/4/3
f 169/4/3 164/4/3 166/4/3
f 170/4/3 164/4/3 169/4/3
f 171/3/3 168/3/3 167/3/3
f 172/3/3 168/3/3 171/3/3
f 173/3/3 170/3/3 169/3/3
f 174/3/3 170/3/3 173/3/3
f 181/8/3 176/8/3 175/8/3
f 182/8/3 176/8/3 181/8/3
f 183/7/3 178/7/3 177/7/3
f 184/7/3 178/7/3 183/7/3
f 185/8/3 180/8/3 179/8/3
f 186/8/3 180/8/3 185/8/3
f 188/4/3 183/4/3 182/4/3
f 189/4/3 183/4/3 188/4/3
f 190/4/3 185/4/3 184/4/3
f 191/4/3 185/4/3 190/4/3
f 195/4/3 188/4/3 187/4/3
f 196/4/3 188/4/3 195/4/3
f 197/6/3 194/6/3 193/6/3
f 198/6/3 194/6/3 197/6/3
f 199/4/3 192/4/3 191/4/3
f 200/4/3 192/4/3 199/4/3
f 201/3/3 196/3/3 195/3/3
f 202/3/3 196/3/3 201/3/3
f 203/6/3 198/6/3 197/6/3
f 204/6/3 198/6/3 203/6/3
f 205/3/3 200/3/3 199/3/3
f 206/3/3 200/3/3 205/3/3
f 211/5/3 208/5/3 207/5/3
f 212/5/3 208/5/3 211/5/3
f 213/5/3 210/5/3 209/5/3
f 214/5/3 210/5/3 213/5/3
f 219/8/3 216/8/3 215/8/3
f 220/8/3 216/8/3 219/8/3
f 221/8/3 218/8/3 217/8/3
f 222/8/3 218/8/3 221/8/3
f 227/4/3 224/4/3 223/4/3
f 228/4/3 224/4/3 227/4/3
f 229/4/3 226/4/3 225/4/3
f 230/4/3 226/4/3 229/4/3
f 231/3/3 228/3/3 227/3/3
f 232/3/3 228/3/3 231/3/3
f 233/3/3 230/3/3 229/3/3
f 234/3/3 230/3/3 233/3/3
f 235/8/4 236/8/4 239/8/4
f 239/8/4 236/8/4 240/8/4
f 237/8/4 238/8/4 241/8/4
f 241/8/4 238/8/4 242/8/4
f 243/4/4 244/4/4 247/4/4
f 247/4/4 244/4/4 248/4/4
f 245/4/4 246/4/4 249/4/4
f 249/4/4 246/4/4 250/4/4
f 247/3/4 248/3/4 251/3/4
f 251/3/4 248/3/4 252/3/4
f 249/3/4 250/3/4 253/3/4
f 253/3/4 250/3/4 254/3/4
f 255/5/4 256/5/4 259/5/4
f 259/5/4 256/5/4 260/5/4
f 257/5/4 258/5/4 261/5/4
f 261/5/4 258/5/4 262/5/4
f 263/8/4 264/8/4 269/8/4
f 269/8/4 264/8/4 270/8/4
f 265/7/4 266/7/4 271/7/4
f 271/7/4 266/7/4 272/7/4
f 267/8/4 268/8/4 273/8/4
f 273/8/4 268/8/4 274/8/4
f 270/4/4 271/4/4 276/4/4
f 276/4/4 271/4/4 277/4/4
f 272/4/4 273/4/4 278/4/4
f 278/4/4 273/4/4 279/4/4
f 275/4/4 276/4/4 283/4/4
f 283/4/4 276/4/4 284/4/4
f 281/6/4 282/6/4 285/6/4
f 285/6/4 282/6/4 286/6/4
f 279/4/4 280/4/4 287/4/4
f 287/4/4 280/4/4 288/4/4
f 283/3/4 284/3/4 289/3/4
f 289/3/4 284/3/4 290/3/4
f 285/6/4 286/6/4 291/6/4
f 291/6/4 286/6/4 292/6/4
f 287/3/4 288/3/4 293/3/4
f 293/3/4 288/3/4 294/3/4
f 295/8/4 296/8/4 299/8/4
f 299/8/4 296/8/4 300/8/4
f 297/8/4 298/8/4 301/8/4
f 301/8/4 298/8/4 302/8/4
f 300/5/4 301/5/4 304/5/4
f 304/5/4 301/5/4 305/5/4
f 303/4/4 304/4/4 307/4/4
f 304/5/4 305/5/4 307/5/4
f 305/4/4 306/4/4 308/4/4
f 307/5/4 305/5/4 308/5/4
f 303/4/4 307/4/4 309/4/4
f 309/4/4 307/4/4 310/4/4
f 308/4/4 306/4/4 311/4/4
f 311/4/4 306/4/4 312/4/4
f 309/3/4 310/3/4 313/3/4
f 313/3/4 310/3/4 314/3/4
f 311/3/4 312/3/4 315/3/4
f 315/3/4 312/3/4 316/3/4
f 322/8/5 318/8/5 317/8/5
f 323/8/5 318/8/5 322/8/5
f 324/4/5 320/4/5 319/4/5
f 325/4/5 320/4/5 324/4/5
f 326/3/5 321/3/5 320/3/5
f 326/4/5 320/4/5 325/4/5
f 327/3/5 321/3/5 326/3/5
f 329/5/5 325/5/5 324/5/5
f 329/5/5 324/5/5 323/5/5
f 330/5/5 325/5/5 329/5/5
f 331/5/5 325/5/5 330/5/5
f 334/8/5 329/8/5 328/8/5
f 335/8/5 329/8/5 334/8/5
f 336/4/5 332/4/5 331/4/5
f 336/4/5 331/4/5 330/4/5
f 337/3/5 333/3/5 332/3/5
f 337/4/5 332/4/5 336/4/5
f 338/3/5 333/3/5 337/3/5
f 344/8/5 340/8/5 339/8/5
f 345/8/5 340/8/5 344/8/5
f 346/4/5 342/4/5 341/4/5
f 347/3/5 343/3/5 342/3/5
f 347/4/5 342/4/5 346/4/5
f 348/3/5 343/3/5 347/3/5
f 350/4/5 346/4/5 345/4/5
f 351/4/5 346/4/5 350/4/5
f 355/7/5 350/7/5 349/7/5
f 356/7/5 350/7/5 355/7/5
f 358/6/5 354/6/5 353/6/5
f 358/6/5 353/6/5 352/6/5
f 359/6/5 354/6/5 358/6/5
f 360/6/5 354/6/5 359/6/5
f 362/4/5 357/4/5 356/4/5
f 363/4/5 357/4/5 362/4/5
f 366/8/5 362/8/5 361/8/5
f 367/8/5 362/8/5 366/8/5
f 368/4/5 364/4/5 363/4/5
f 369/3/5 365/3/5 364/3/5
f 369/4/5 364/4/5 368/4/5
f 370/3/5 365/3/5 369/3/5
f 373/5/5 372/5/5 371/5/5
f 374/5/5 372/5/5 373/5/5
f 377/5/5 376/5/5 375/5/5
f 378/5/5 376/5/5 377/5/5
f 384/8/5 380/8/5 379/8/5
f 385/8/5 380/8/5 384/8/5
f 386/4/5 382/4/5 381/4/5
f 387/3/5 383/3/5 382/3/5
f 387/4/5 382/4/5 386/4/5
f 388/3/5 383/3/5 387/3/5
f 394/8/5 390/8/5 389/8/5
f 395/8/5 390/8/5 394/8/5
f 396/4/5 392/4/5 391/4/5
f 397/3/5 393/3/5 392/3/5
f 397/4/5 392/4/5 396/4/5
f 398/3/5 393/3/5 397/3/5
f 399/8/6 400/8/6 404/8/6
f 404/8/6 400/8/6 405/8/6
f 401/4/6 402/4/6 406/4/6
f 402/3/6 403/3/6 407/3/6
f 406/4/6 402/4/6 407/4/6
f 407/3/6 403/3/6 408/3/6
f 409/8/6 410/8/6 414/8/6
f 414/8/6 410/8/6 415/8/6
f 411/4/6 412/4/6 416/4/6
f 412/3/6 413/3/6 417/3/6
f 416/4/6 412/4/6 417/4/6
f 417/3/6 413/3/6 418/3/6
f 419/5/6 420/5/6 421/5/6
f 421/5/6 420/5/6 422/5/6
f 423/5/6 424/5/6 425/5/6
f 425/5/6 424/5/6 426/5/6
f 427/8/6 428/8/6 432/8/6
f 432/8/6 428/8/6 433/8/6
f 429/4/6 430/4/6 434/4/6
f 430/3/6 431/3/6 435/3/6
f 434/4/6 430/4/6 435/4/6
f 435/3/6 431/3/6 436/3/6
f 433/4/6 434/4/6 438/4/6
f 438/4/6 434/4/6 439/4/6
f 437/7/6 438/7/6 443/7/6
f 443/7/6 438/7/6 444/7/6
f 441/6/6 442/6/6 446/6/6
f 440/6/6 441/6/6 446/6/6
f 446/6/6 442/6/6 447/6/6
f 447/6/6 442/6/6 448/6/6
f 444/4/6 445/4/6 450/4/6
f 450/4/6 445/4/6 451/4/6
f 449/8/6 450/8/6 454/8/6
f 454/8/6 450/8/6 455/8/6
f 451/4/6 452/4/6 456/4/6
f 452/3/6 453/3/6 457/3/6
f 456/4/6 452/4/6 457/4/6
f 457/3/6 453/3/6 458/3/6
f 459/8/6 460/8/6 464/8/6
f 464/8/6 460/8/6 465/8/6
f 461/4/6 462/4/6 466/4/6
f 466/4/6 462/4/6 467/4/6
f 462/3/6 463/3/6 468/3/6
f 467/4/6 462/4/6 468/4/6
f 468/3/6 463/3/6 469/3/6
f 466/5/6 467/5/6 471/5/6
f 465/5/6 466/5/6 471/5/6
f 471/5/6 467/5/6 472/5/6
f 472/5/6 467/5/6 473/5/6
f 470/8/6 471/8/6 476/8/6
f 476/8/6 471/8/6 477/8/6
f 473/4/6 474/4/6 478/4/6
f 472/4/6 473/4/6 478/4/6
f 474/3/6 475/3/6 479/3/6
f 478/4/6 474/4/6 479/4/6
f 479/3/6 475/3/6 480/3/6
