# MagicaVoxel @ Ephtracy

# group
o 

# material
mtllib ak47-0.mtl
usemtl palette

# normals
vn 1 0 0
vn -1 0 0
vn 0 0 -1
vn 0 0 1
vn 0 1 0
vn 0 -1 0

# texcoords
vt 0.0332031 0.5
vt 0.0371094 0.5

# verts
v -1 -1.6 -0.1
v -1 -1.6 0
v -1 -1.8 -0.1
v -1 -1.8 0
v -1.1 -1.8 -0.1
v -1.1 -1.8 0
v -1.1 -1.9 -0.1
v -1.1 -1.9 0
v -1.1 -2 -0.1
v -1.1 -2 0
v -1.2 -2 -0.1
v -1.2 -2 0
v -1.2 -2.1 -0.1
v -1.2 -2.1 0
v -1.2 -2.3 -0.1
v -1.2 -2.3 0
v -1.3 -2.3 -0.1
v -1.3 -2.3 0
v -1.3 -2.4 -0.1
v -1.3 -2.4 0
v -1.3 -1.6 -0.1
v -1.3 -1.6 0
v -1.3 -1.7 -0.1
v -1.3 -1.7 0
v -1.4 -1.7 -0.1
v -1.4 -1.7 0
v -1.4 -1.9 -0.1
v -1.4 -1.9 0
v -1.5 -1.9 -0.1
v -1.5 -1.9 0
v -1.5 -2.1 -0.1
v -1.5 -2.1 0
v -1.6 -2.1 -0.1
v -1.6 -2.1 0
v -1.6 -2.4 -0.1
v -1.6 -2.4 0
v -1 -1.6 -0.1
v -1 -1.8 -0.1
v -1.1 -1.7 -0.1
v -1.1 -1.8 -0.1
v -1.1 -1.9 -0.1
v -1.1 -2 -0.1
v -1.2 -1.9 -0.1
v -1.2 -2 -0.1
v -1.2 -2.1 -0.1
v -1.2 -2.3 -0.1
v -1.3 -1.6 -0.1
v -1.3 -1.7 -0.1
v -1.3 -1.9 -0.1
v -1.3 -2.1 -0.1
v -1.3 -2.3 -0.1
v -1.3 -2.4 -0.1
v -1.4 -1.7 -0.1
v -1.4 -1.9 -0.1
v -1.4 -2.1 -0.1
v -1.5 -1.9 -0.1
v -1.5 -2.1 -0.1
v -1.5 -2.4 -0.1
v -1.6 -2.1 -0.1
v -1.6 -2.4 -0.1
v -1 -1.6 0
v -1 -1.8 0
v -1.1 -1.7 0
v -1.1 -1.8 0
v -1.1 -1.9 0
v -1.1 -2 0
v -1.2 -1.9 0
v -1.2 -2 0
v -1.2 -2.1 0
v -1.2 -2.3 0
v -1.3 -1.6 0
v -1.3 -1.7 0
v -1.3 -1.9 0
v -1.3 -2.1 0
v -1.3 -2.3 0
v -1.3 -2.4 0
v -1.4 -1.7 0
v -1.4 -1.9 0
v -1.4 -2.1 0
v -1.5 -1.9 0
v -1.5 -2.1 0
v -1.5 -2.4 0
v -1.6 -2.1 0
v -1.6 -2.4 0
v -1 -1.6 -0.1
v -1.3 -1.6 -0.1
v -1 -1.6 0
v -1.3 -1.6 0
v -1.3 -1.7 -0.1
v -1.4 -1.7 -0.1
v -1.3 -1.7 0
v -1.4 -1.7 0
v -1.4 -1.9 -0.1
v -1.5 -1.9 -0.1
v -1.4 -1.9 0
v -1.5 -1.9 0
v -1.5 -2.1 -0.1
v -1.6 -2.1 -0.1
v -1.5 -2.1 0
v -1.6 -2.1 0
v -1 -1.8 -0.1
v -1.1 -1.8 -0.1
v -1 -1.8 0
v -1.1 -1.8 0
v -1.1 -2 -0.1
v -1.2 -2 -0.1
v -1.1 -2 0
v -1.2 -2 0
v -1.2 -2.3 -0.1
v -1.3 -2.3 -0.1
v -1.2 -2.3 0
v -1.3 -2.3 0
v -1.3 -2.4 -0.1
v -1.5 -2.4 -0.1
v -1.6 -2.4 -0.1
v -1.3 -2.4 0
v -1.5 -2.4 0
v -1.6 -2.4 0

# faces
f 1/2/1 2/2/1 3/2/1
f 3/2/1 2/2/1 4/2/1
f 5/1/1 6/1/1 7/1/1
f 7/1/1 6/1/1 8/1/1
f 7/2/1 8/2/1 9/2/1
f 9/2/1 8/2/1 10/2/1
f 11/1/1 12/1/1 13/1/1
f 13/1/1 12/1/1 14/1/1
f 13/2/1 14/2/1 15/2/1
f 15/2/1 14/2/1 16/2/1
f 17/1/1 18/1/1 19/1/1
f 19/1/1 18/1/1 20/1/1
f 23/2/2 22/2/2 21/2/2
f 24/2/2 22/2/2 23/2/2
f 27/2/2 26/2/2 25/2/2
f 28/2/2 26/2/2 27/2/2
f 31/2/2 30/2/2 29/2/2
f 32/2/2 30/2/2 31/2/2
f 35/2/2 34/2/2 33/2/2
f 36/2/2 34/2/2 35/2/2
f 37/2/3 38/2/3 39/2/3
f 39/2/3 38/2/3 40/2/3
f 39/1/3 40/1/3 43/1/3
f 41/2/3 42/2/3 43/2/3
f 40/1/3 41/1/3 43/1/3
f 43/2/3 42/2/3 44/2/3
f 37/2/3 39/2/3 47/2/3
f 39/1/3 43/1/3 48/1/3
f 47/2/3 39/2/3 48/2/3
f 43/1/3 44/1/3 48/1/3
f 44/1/3 45/1/3 48/1/3
f 48/1/3 45/1/3 49/1/3
f 45/2/3 46/2/3 50/2/3
f 49/1/3 45/1/3 50/1/3
f 50/2/3 46/2/3 51/2/3
f 48/2/3 49/2/3 53/2/3
f 51/1/3 52/1/3 54/1/3
f 53/2/3 49/2/3 54/2/3
f 50/1/3 51/1/3 54/1/3
f 49/1/3 50/1/3 54/1/3
f 54/1/3 52/1/3 55/1/3
f 54/2/3 55/2/3 56/2/3
f 55/1/3 52/1/3 57/1/3
f 56/2/3 55/2/3 57/2/3
f 57/1/3 52/1/3 58/1/3
f 57/2/3 58/2/3 59/2/3
f 59/2/3 58/2/3 60/2/3
f 63/2/4 62/2/4 61/2/4
f 64/2/4 62/2/4 63/2/4
f 67/1/4 64/1/4 63/1/4
f 67/2/4 66/2/4 65/2/4
f 67/1/4 65/1/4 64/1/4
f 68/2/4 66/2/4 67/2/4
f 71/2/4 63/2/4 61/2/4
f 72/1/4 67/1/4 63/1/4
f 72/2/4 63/2/4 71/2/4
f 72/1/4 68/1/4 67/1/4
f 72/1/4 69/1/4 68/1/4
f 73/1/4 69/1/4 72/1/4
f 74/2/4 70/2/4 69/2/4
f 74/1/4 69/1/4 73/1/4
f 75/2/4 70/2/4 74/2/4
f 77/2/4 73/2/4 72/2/4
f 78/1/4 76/1/4 75/1/4
f 78/2/4 73/2/4 77/2/4
f 78/1/4 75/1/4 74/1/4
f 78/1/4 74/1/4 73/1/4
f 79/1/4 76/1/4 78/1/4
f 80/2/4 79/2/4 78/2/4
f 81/1/4 76/1/4 79/1/4
f 81/2/4 79/2/4 80/2/4
f 82/1/4 76/1/4 81/1/4
f 83/2/4 82/2/4 81/2/4
f 84/2/4 82/2/4 83/2/4
f 85/2/5 86/2/5 87/2/5
f 87/2/5 86/2/5 88/2/5
f 89/2/5 90/2/5 91/2/5
f 91/2/5 90/2/5 92/2/5
f 93/2/5 94/2/5 95/2/5
f 95/2/5 94/2/5 96/2/5
f 97/2/5 98/2/5 99/2/5
f 99/2/5 98/2/5 100/2/5
f 103/2/6 102/2/6 101/2/6
f 104/2/6 102/2/6 103/2/6
f 107/2/6 106/2/6 105/2/6
f 108/2/6 106/2/6 107/2/6
f 111/2/6 110/2/6 109/2/6
f 112/2/6 110/2/6 111/2/6
f 116/1/6 114/1/6 113/1/6
f 117/2/6 115/2/6 114/2/6
f 117/1/6 114/1/6 116/1/6
f 118/2/6 115/2/6 117/2/6
